<mxfile host="Electron" modified="2023-09-27T09:47:36.601Z" agent="Mozilla/5.0 (Windows NT 10.0; Win64; x64) AppleWebKit/537.36 (KHTML, like Gecko) draw.io/21.7.5 Chrome/114.0.5735.289 Electron/25.8.1 Safari/537.36" etag="4RxeirKAiW4_YbO3L3ts" version="21.7.5" type="device">
  <diagram name="Page-1" id="7PZ0u_S2GD89VCFbmm-j">
    <mxGraphModel dx="1040" dy="672" grid="1" gridSize="10" guides="1" tooltips="1" connect="1" arrows="1" fold="1" page="1" pageScale="1" pageWidth="850" pageHeight="1100" math="0" shadow="0">
      <root>
        <mxCell id="0" />
        <mxCell id="1" parent="0" />
        <mxCell id="M36HDLBCvy9Mlk9TzMVg-19" value="" style="rounded=0;whiteSpace=wrap;html=1;fillColor=none;strokeWidth=4;strokeColor=#3399FF;" vertex="1" parent="1">
          <mxGeometry x="240" y="10" width="580" height="410" as="geometry" />
        </mxCell>
        <mxCell id="lcGtG0gVQO5_3a0Ce1ZO-10" style="edgeStyle=orthogonalEdgeStyle;rounded=0;orthogonalLoop=1;jettySize=auto;html=1;exitX=1;exitY=0.5;exitDx=0;exitDy=0;entryX=0;entryY=0.5;entryDx=0;entryDy=0;" parent="1" source="lcGtG0gVQO5_3a0Ce1ZO-1" target="lcGtG0gVQO5_3a0Ce1ZO-3" edge="1">
          <mxGeometry relative="1" as="geometry" />
        </mxCell>
        <mxCell id="lcGtG0gVQO5_3a0Ce1ZO-23" value="443" style="edgeLabel;html=1;align=center;verticalAlign=middle;resizable=0;points=[];" parent="lcGtG0gVQO5_3a0Ce1ZO-10" vertex="1" connectable="0">
          <mxGeometry x="-0.1167" y="1" relative="1" as="geometry">
            <mxPoint as="offset" />
          </mxGeometry>
        </mxCell>
        <mxCell id="lcGtG0gVQO5_3a0Ce1ZO-1" value="haproxy-service&lt;br&gt;nodeport" style="rounded=1;whiteSpace=wrap;html=1;" parent="1" vertex="1">
          <mxGeometry x="260" y="225" width="70" height="50" as="geometry" />
        </mxCell>
        <mxCell id="lcGtG0gVQO5_3a0Ce1ZO-15" style="edgeStyle=orthogonalEdgeStyle;rounded=0;orthogonalLoop=1;jettySize=auto;html=1;exitX=0.5;exitY=1;exitDx=0;exitDy=0;entryX=0;entryY=0.5;entryDx=0;entryDy=0;" parent="1" source="lcGtG0gVQO5_3a0Ce1ZO-3" target="lcGtG0gVQO5_3a0Ce1ZO-4" edge="1">
          <mxGeometry relative="1" as="geometry" />
        </mxCell>
        <mxCell id="lcGtG0gVQO5_3a0Ce1ZO-20" value="example.com/*" style="edgeLabel;html=1;align=center;verticalAlign=middle;resizable=0;points=[];" parent="lcGtG0gVQO5_3a0Ce1ZO-15" vertex="1" connectable="0">
          <mxGeometry x="-0.4711" y="2" relative="1" as="geometry">
            <mxPoint as="offset" />
          </mxGeometry>
        </mxCell>
        <mxCell id="lcGtG0gVQO5_3a0Ce1ZO-22" value="443" style="edgeLabel;html=1;align=center;verticalAlign=middle;resizable=0;points=[];" parent="lcGtG0gVQO5_3a0Ce1ZO-15" vertex="1" connectable="0">
          <mxGeometry x="0.7022" y="-1" relative="1" as="geometry">
            <mxPoint as="offset" />
          </mxGeometry>
        </mxCell>
        <mxCell id="M36HDLBCvy9Mlk9TzMVg-5" style="edgeStyle=orthogonalEdgeStyle;rounded=0;orthogonalLoop=1;jettySize=auto;html=1;exitX=1;exitY=0.75;exitDx=0;exitDy=0;entryX=0;entryY=0.5;entryDx=0;entryDy=0;" edge="1" parent="1" source="lcGtG0gVQO5_3a0Ce1ZO-3" target="M36HDLBCvy9Mlk9TzMVg-1">
          <mxGeometry relative="1" as="geometry">
            <Array as="points">
              <mxPoint x="680" y="260" />
              <mxPoint x="680" y="300" />
            </Array>
          </mxGeometry>
        </mxCell>
        <mxCell id="M36HDLBCvy9Mlk9TzMVg-11" value="example.com/iframe/wiki" style="edgeLabel;html=1;align=center;verticalAlign=middle;resizable=0;points=[];" vertex="1" connectable="0" parent="M36HDLBCvy9Mlk9TzMVg-5">
          <mxGeometry x="-0.7459" relative="1" as="geometry">
            <mxPoint x="53" as="offset" />
          </mxGeometry>
        </mxCell>
        <mxCell id="M36HDLBCvy9Mlk9TzMVg-7" style="edgeStyle=orthogonalEdgeStyle;rounded=0;orthogonalLoop=1;jettySize=auto;html=1;exitX=1;exitY=0.5;exitDx=0;exitDy=0;entryX=0;entryY=0.5;entryDx=0;entryDy=0;" edge="1" parent="1" source="lcGtG0gVQO5_3a0Ce1ZO-3" target="M36HDLBCvy9Mlk9TzMVg-6">
          <mxGeometry relative="1" as="geometry">
            <Array as="points">
              <mxPoint x="680" y="250" />
              <mxPoint x="680" y="220" />
            </Array>
          </mxGeometry>
        </mxCell>
        <mxCell id="M36HDLBCvy9Mlk9TzMVg-12" value="example.com/iframe/timetable" style="edgeLabel;html=1;align=center;verticalAlign=middle;resizable=0;points=[];" vertex="1" connectable="0" parent="M36HDLBCvy9Mlk9TzMVg-7">
          <mxGeometry x="-0.6844" y="3" relative="1" as="geometry">
            <mxPoint x="50" y="3" as="offset" />
          </mxGeometry>
        </mxCell>
        <mxCell id="M36HDLBCvy9Mlk9TzMVg-14" style="edgeStyle=orthogonalEdgeStyle;rounded=0;orthogonalLoop=1;jettySize=auto;html=1;exitX=1;exitY=0.25;exitDx=0;exitDy=0;entryX=0;entryY=0.5;entryDx=0;entryDy=0;" edge="1" parent="1" source="lcGtG0gVQO5_3a0Ce1ZO-3" target="M36HDLBCvy9Mlk9TzMVg-13">
          <mxGeometry relative="1" as="geometry">
            <Array as="points">
              <mxPoint x="640" y="240" />
              <mxPoint x="640" y="140" />
            </Array>
          </mxGeometry>
        </mxCell>
        <mxCell id="M36HDLBCvy9Mlk9TzMVg-15" value="example.com/iframe/gitlab" style="edgeLabel;html=1;align=center;verticalAlign=middle;resizable=0;points=[];" vertex="1" connectable="0" parent="M36HDLBCvy9Mlk9TzMVg-14">
          <mxGeometry x="-0.7801" y="2" relative="1" as="geometry">
            <mxPoint x="47" y="2" as="offset" />
          </mxGeometry>
        </mxCell>
        <mxCell id="M36HDLBCvy9Mlk9TzMVg-17" style="edgeStyle=orthogonalEdgeStyle;rounded=0;orthogonalLoop=1;jettySize=auto;html=1;exitX=0.5;exitY=0;exitDx=0;exitDy=0;entryX=0;entryY=0.5;entryDx=0;entryDy=0;" edge="1" parent="1" source="lcGtG0gVQO5_3a0Ce1ZO-3" target="M36HDLBCvy9Mlk9TzMVg-16">
          <mxGeometry relative="1" as="geometry" />
        </mxCell>
        <mxCell id="M36HDLBCvy9Mlk9TzMVg-18" value="example.com/iframe/docviewer" style="edgeLabel;html=1;align=center;verticalAlign=middle;resizable=0;points=[];" vertex="1" connectable="0" parent="M36HDLBCvy9Mlk9TzMVg-17">
          <mxGeometry x="0.1371" y="-1" relative="1" as="geometry">
            <mxPoint x="40" y="-1" as="offset" />
          </mxGeometry>
        </mxCell>
        <mxCell id="lcGtG0gVQO5_3a0Ce1ZO-3" value="haproxy" style="rounded=1;whiteSpace=wrap;html=1;" parent="1" vertex="1">
          <mxGeometry x="370" y="230" width="60" height="40" as="geometry" />
        </mxCell>
        <mxCell id="lcGtG0gVQO5_3a0Ce1ZO-7" style="edgeStyle=orthogonalEdgeStyle;rounded=0;orthogonalLoop=1;jettySize=auto;html=1;exitX=1;exitY=0.5;exitDx=0;exitDy=0;entryX=0;entryY=0.5;entryDx=0;entryDy=0;shape=link;" parent="1" source="lcGtG0gVQO5_3a0Ce1ZO-4" target="lcGtG0gVQO5_3a0Ce1ZO-6" edge="1">
          <mxGeometry relative="1" as="geometry" />
        </mxCell>
        <mxCell id="lcGtG0gVQO5_3a0Ce1ZO-4" value="moodle" style="rounded=1;whiteSpace=wrap;html=1;" parent="1" vertex="1">
          <mxGeometry x="440" y="360" width="70" height="40" as="geometry" />
        </mxCell>
        <mxCell id="lcGtG0gVQO5_3a0Ce1ZO-6" value="moodle-db" style="rounded=1;whiteSpace=wrap;html=1;" parent="1" vertex="1">
          <mxGeometry x="530" y="360" width="70" height="40" as="geometry" />
        </mxCell>
        <mxCell id="lcGtG0gVQO5_3a0Ce1ZO-17" style="edgeStyle=orthogonalEdgeStyle;rounded=0;orthogonalLoop=1;jettySize=auto;html=1;exitX=0.5;exitY=0.5;exitDx=0;exitDy=0;exitPerimeter=0;entryX=0;entryY=0.5;entryDx=0;entryDy=0;" parent="1" source="lcGtG0gVQO5_3a0Ce1ZO-8" target="lcGtG0gVQO5_3a0Ce1ZO-1" edge="1">
          <mxGeometry relative="1" as="geometry" />
        </mxCell>
        <mxCell id="lcGtG0gVQO5_3a0Ce1ZO-18" value="30443" style="edgeLabel;html=1;align=center;verticalAlign=middle;resizable=0;points=[];" parent="lcGtG0gVQO5_3a0Ce1ZO-17" vertex="1" connectable="0">
          <mxGeometry x="0.8248" y="1" relative="1" as="geometry">
            <mxPoint x="-26" y="1" as="offset" />
          </mxGeometry>
        </mxCell>
        <mxCell id="lcGtG0gVQO5_3a0Ce1ZO-19" value="example.com/*" style="edgeLabel;html=1;align=center;verticalAlign=middle;resizable=0;points=[];" parent="lcGtG0gVQO5_3a0Ce1ZO-17" vertex="1" connectable="0">
          <mxGeometry x="-0.5467" y="-1" relative="1" as="geometry">
            <mxPoint x="18" as="offset" />
          </mxGeometry>
        </mxCell>
        <mxCell id="lcGtG0gVQO5_3a0Ce1ZO-8" value="Actor" style="shape=umlActor;verticalLabelPosition=bottom;verticalAlign=top;html=1;outlineConnect=0;" parent="1" vertex="1">
          <mxGeometry x="80" y="220" width="30" height="60" as="geometry" />
        </mxCell>
        <mxCell id="M36HDLBCvy9Mlk9TzMVg-1" value="Wiki" style="rounded=1;whiteSpace=wrap;html=1;" vertex="1" parent="1">
          <mxGeometry x="720" y="280" width="80" height="40" as="geometry" />
        </mxCell>
        <mxCell id="M36HDLBCvy9Mlk9TzMVg-6" value="Blockplan/&lt;br&gt;Timetable" style="rounded=1;whiteSpace=wrap;html=1;" vertex="1" parent="1">
          <mxGeometry x="720" y="200" width="80" height="40" as="geometry" />
        </mxCell>
        <mxCell id="M36HDLBCvy9Mlk9TzMVg-8" value="&lt;font color=&quot;#3399ff&quot;&gt;K8s Cluster&lt;/font&gt;" style="text;html=1;strokeColor=none;fillColor=none;align=center;verticalAlign=middle;whiteSpace=wrap;rounded=0;" vertex="1" parent="1">
          <mxGeometry x="482.5" y="20" width="95" height="30" as="geometry" />
        </mxCell>
        <mxCell id="M36HDLBCvy9Mlk9TzMVg-10" value="" style="endArrow=none;html=1;rounded=0;" edge="1" parent="1">
          <mxGeometry width="50" height="50" relative="1" as="geometry">
            <mxPoint x="425" y="50" as="sourcePoint" />
            <mxPoint x="625" y="50" as="targetPoint" />
          </mxGeometry>
        </mxCell>
        <mxCell id="M36HDLBCvy9Mlk9TzMVg-13" value="GitLab" style="rounded=1;whiteSpace=wrap;html=1;" vertex="1" parent="1">
          <mxGeometry x="720" y="120" width="80" height="40" as="geometry" />
        </mxCell>
        <mxCell id="M36HDLBCvy9Mlk9TzMVg-16" value="Document viewer (PDF)" style="rounded=1;whiteSpace=wrap;html=1;" vertex="1" parent="1">
          <mxGeometry x="600" y="80" width="80" height="40" as="geometry" />
        </mxCell>
      </root>
    </mxGraphModel>
  </diagram>
</mxfile>
